<svg width="16" height="16" viewBox="0 0 16 16" fill="none" xmlns="http://www.w3.org/2000/svg">
<path fill-rule="evenodd" clip-rule="evenodd" d="M0.943999 10.79C0.960377 10.685 1.00976 10.588 1.085 10.513L11.163 0.434967C11.2568 0.341232 11.3839 0.288574 11.5165 0.288574C11.6491 0.288574 11.7762 0.341232 11.87 0.434967L15.76 4.32497C15.8534 4.41869 15.9059 4.54563 15.9059 4.67797C15.9059 4.8103 15.8534 4.93724 15.76 5.03097L5.68 15.11C5.60485 15.1848 5.50785 15.2339 5.403 15.25L0.807999 15.956C0.730418 15.9679 0.651126 15.9613 0.57654 15.9369C0.501954 15.9124 0.434169 15.8708 0.37867 15.8153C0.323171 15.7598 0.281517 15.692 0.257079 15.6174C0.23264 15.5428 0.226104 15.4635 0.237999 15.386L0.943999 10.79ZM1.908 11.104L1.331 14.864L5.09 14.286L14.699 4.67797L11.516 1.49597L1.908 11.104Z" fill="black"/>
<path fill-rule="evenodd" clip-rule="evenodd" d="M12.472 7.17294L8.935 3.64294L9.642 2.93494L13.178 6.46494L12.472 7.17294Z" fill="black"/>
</svg>
